<svg xmlns="http://www.w3.org/2000/svg" width="28" height="28" viewBox="0 0 28 28" fill="none">
  <path
    d="M5 11.5C4.4 7.8 7 4.6 10.5 4.1 12 3.9 13.4 4.4 14.5 5.4 15.6 4.4 17 3.9 18.5 4.1 22 4.6 24.6 7.8 24 11.5 22.7 10 20.8 9.1 18.9 9.3 17.1 9.4 15.6 10.5 14.8 12 14.5 12.6 13.5 12.6 13.2 12 12.4 10.5 10.9 9.4 9.1 9.3 7.2 9.1 5.3 10 5 11.5Z"
    fill="#ffffff"
  />
  <path
    d="M5.6 14.3C7.5 17.6 10.5 19.2 14 19.2S20.5 17.6 22.4 14.3L23 19.5C23.4 22.7 21.4 25.6 18.6 26.8 17.1 27.4 15.6 27.7 14 27.7 12.4 27.7 10.9 27.4 9.4 26.8 6.6 25.6 4.6 22.7 5 19.5L5.6 14.3Z"
    fill="#ffffff"
  />
</svg>
