<svg xmlns="http://www.w3.org/2000/svg" width="28" height="28" viewBox="0 0 28 28" fill="none">
  <path
    d="M6.2 11.4c1.3-2.5 3.8-4.2 6.5-4.2 1.4 0 2.7.4 3.8 1.1 1.1-.7 2.4-1.1 3.8-1.1 2.8 0 5.2 1.7 6.5 4.2l.6 1.2c-1.6-1.2-3.2-1.8-4.9-1.6-1.7.2-3.3 1.1-4.4 2.4-.8.9-2 .9-2.8 0-1.1-1.3-2.7-2.2-4.4-2.4-1.7-.2-3.3.4-4.9 1.6l.6-1.2Z"
    fill="#ffffff"
  />
  <path
    d="M7.1 13.9 6.4 18.2c-.3 2.8.8 5.6 3.1 7.4 1.7 1.3 3.8 2 5.9 2s4.2-.7 5.9-2c2.2-1.8 3.3-4.5 3.1-7.4l-.7-4.3c-1.9 2.9-5 4.7-8.3 4.7s-6.4-1.8-8.3-4.7Z"
    fill="#ffffff"
  />
  <path
    d="M11.9 12.3c-1.1-.3-2.1 0-3.2.6l-.5.3c1.1 2.2 3.2 3.6 5.6 3.6h.4c2.4 0 4.5-1.4 5.6-3.6l-.5-.3c-1.1-.6-2.1-.9-3.2-.6-.8.2-1.5.6-2 1.2-.4.4-1 .4-1.4 0-.5-.6-1.2-1-2-1.2Z"
    fill="#ffffff"
  />
</svg>
