<svg xmlns="http://www.w3.org/2000/svg" width="24" height="24" viewBox="0 0 24 24" fill="none">
  <path d="M6.2 6.5c-1.1.3-2 .9-2.7 1.8C4.6 6.2 6.9 4.5 9.7 4.5c1.3 0 2.4.4 3.3 1.1.9-.7 2-1.1 3.3-1.1 2.8 0 5.1 1.7 6.2 3.8-.7-.9-1.6-1.5-2.7-1.8-.9-.2-1.7-.1-2.5.3-.8.4-1.4 1-1.7 1.7l-.6 1.4c-.5 1.1-1.4 1.9-2.4 1.9s-1.9-.7-2.4-1.9l-.6-1.4c-.3-.7-.9-1.3-1.7-1.7-.8-.4-1.6-.5-2.5-.3z" fill="currentColor" opacity="0.9" />
  <path d="M4.5 13.5c.9 1.6 2.7 2.5 5 2.5 1.3 0 2.4-.2 3.4-.7 1 .5 2.1.7 3.4.7 2.3 0 4.1-.9 5-2.5-.9.6-2 .9-3.2.9-1.4 0-2.7-.4-3.7-1.2-.4-.3-.9-.3-1.3 0-1 .8-2.3 1.2-3.7 1.2-1.2 0-2.3-.3-3.2-.9z" fill="currentColor" />
</svg>
