<svg xmlns="http://www.w3.org/2000/svg" width="24" height="24" viewBox="0 0 24 24" fill="none">
  <path
    d="M3.6 8.4c1.3-1.9 3.3-3 5.5-3 1 0 2 .2 2.9.7.9-.4 1.9-.7 2.9-.7 2.2 0 4.2 1.1 5.5 3-.1 1-.5 1.9-1.2 2.6-1.1 1.2-2.7 1.9-4.3 1.9-1.1 0-2.2-.3-3.1-.8-.9.5-2 .8-3.1.8-1.6 0-3.2-.7-4.3-1.9-.7-.7-1.1-1.6-1.2-2.6z"
    fill="#ffffff"
  />
  <path
    d="M4.7 10.1c1.7 1.9 4 3 6.6 3 .9 0 1.7-.1 2.5-.4.8.3 1.6.4 2.5.4 2.6 0 4.9-1.1 6.6-3l-.3 4.8C22.4 18.3 17.7 22 12 22s-10.4-3.7-10.6-7.1l-.3-4.8z"
    fill="#ffffff"
  />
</svg>
