<svg xmlns="http://www.w3.org/2000/svg" width="28" height="28" viewBox="0 0 28 28" fill="none">
  <path
    fill="#ffffff"
    fill-rule="evenodd"
    clip-rule="evenodd"
    d="M5.2 12.5c1.6-2.6 4.1-4.1 6.9-4.1 1 0 2 .2 2.9.5.9-.3 1.9-.5 2.9-.5 2.8 0 5.2 1.5 6.9 4.1l.6 1.2c-1.9-1.1-3.8-1.6-5.6-1.3-1.2.2-2.3.7-3.2 1.4-.6.5-1.2.7-1.9.7-.6 0-1.3-.2-1.9-.7-.9-.7-2-1.2-3.2-1.4-1.8-.3-3.7.1-5.6 1.3l.6-1.2Zm8.3-.6c.3.2.8.2 1.1 0 .8-.7 1.8-1.1 2.8-1.2 1-.1 2 .1 3 .5-.9-1-2.3-1.7-3.9-1.7-.8 0-1.6.2-2.3.5-.7-.3-1.5-.5-2.3-.5-1.6 0-3 .7-3.9 1.7 1-.4 2-.6 3-.5 1 .1 2 .5 2.8 1.2Z"
  />
  <path
    d="M7.2 15.1 7 16.8c-.3 3.9 1.9 7.7 5.8 9.3.5.2 1.1.3 1.7.3.6 0 1.1-.1 1.7-.3 3.9-1.6 6.1-5.4 5.8-9.3l-.2-1.7c-1.6 2.2-4.1 3.6-6.9 3.6-.9 0-1.7-.1-2.5-.4-.8.3-1.6.4-2.5.4-2.7 0-5.2-1.4-6.9-3.6Z"
    fill="#ffffff"
  />
</svg>
