<svg width="32" height="32" viewBox="0 0 32 32" fill="none" xmlns="http://www.w3.org/2000/svg">
  <defs>
    <linearGradient id="colorableInner" x1="10" y1="22" x2="22" y2="10" gradientUnits="userSpaceOnUse">
      <stop stop-color="#1F2937" />
      <stop offset="1" stop-color="#0F172A" />
    </linearGradient>
  </defs>
  <circle cx="16" cy="16" r="13.2" fill="#0F172A" opacity="0.24" />
  <g transform="rotate(-15 16 16)">
    <path d="M16 3.4A12.6 12.6 0 0 0 6.2 8.24L16 16V3.4Z" fill="#F97316" />
    <path d="M6.2 8.24A12.6 12.6 0 0 0 3.4 16c0 1.86.4 3.62 1.12 5.24L16 16L6.2 8.24Z" fill="#EC4899" />
    <path d="M4.52 21.24A12.6 12.6 0 0 0 8.24 25.8L16 16L4.52 21.24Z" fill="#8B5CF6" />
    <path d="M8.24 25.8A12.6 12.6 0 0 0 16 28.6L16 16L8.24 25.8Z" fill="#3B82F6" />
    <path d="M16 28.6A12.6 12.6 0 0 0 23.76 25.8L16 16v12.6Z" fill="#22D3EE" />
    <path d="M23.76 25.8A12.6 12.6 0 0 0 27.48 21.24L16 16l7.76 9.8Z" fill="#34D399" />
    <path d="M27.48 21.24A12.6 12.6 0 0 0 28.6 16c0-1.86-.4-3.62-1.12-5.24L16 16l11.48 5.24Z" fill="#FDE047" />
    <path d="M27.48 10.76A12.6 12.6 0 0 0 23.76 6.2L16 16l11.48-5.24Z" fill="#FB7185" />
    <path d="M23.76 6.2A12.6 12.6 0 0 0 16 3.4V16l7.76-9.8Z" fill="#F43F5E" />
  </g>
  <circle cx="16" cy="16" r="6.2" fill="url(#colorableInner)" stroke="#38BDF8" stroke-width="1.2" />
  <circle cx="19.2" cy="12.8" r="1.6" fill="#F8FAFC" opacity="0.7" />
</svg>
