<svg width="24" height="24" viewBox="0 0 24 24" fill="none" xmlns="http://www.w3.org/2000/svg">
  <defs>
    <linearGradient id="crownBody" x1="4" y1="20" x2="20" y2="4" gradientUnits="userSpaceOnUse">
      <stop stop-color="#FDE68A"/>
      <stop offset="0.5" stop-color="#F59E0B"/>
      <stop offset="1" stop-color="#FBBF24"/>
    </linearGradient>
    <linearGradient id="crownBase" x1="4" y1="18" x2="20" y2="18" gradientUnits="userSpaceOnUse">
      <stop stop-color="#F59E0B"/>
      <stop offset="1" stop-color="#FB923C"/>
    </linearGradient>
  </defs>
  <path d="M4.2 8.3L7.18 12.52L9.84 6.44C10.24 5.44 11.76 5.44 12.16 6.44L14.82 12.52L17.8 8.3C18.4 7.52 19.6 7.72 20 8.64L21.46 12.08C21.98 13.36 21.06 14.8 19.74 14.8H4.26C2.94 14.8 2.02 13.36 2.54 12.08L4 8.64C4.36 7.76 5.56 7.5 6.16 8.3Z" fill="url(#crownBody)" stroke="#F59E0B" stroke-width="0.8" stroke-linejoin="round"/>
  <path d="M4 16H20C20.6 16 21 16.4 21 17V18C21 18.6 20.6 19 20 19H4C3.4 19 3 18.6 3 18V17C3 16.4 3.4 16 4 16Z" fill="url(#crownBase)"/>
  <path d="M12 9.75L10.75 11.5H13.25L12 9.75Z" fill="#FDE68A" stroke="#FBBF24" stroke-width="0.6" stroke-linejoin="round"/>
  <circle cx="6.5" cy="10.3" r="0.85" fill="#FBBF24" stroke="#FDE68A" stroke-width="0.4"/>
  <circle cx="17.5" cy="10.3" r="0.85" fill="#FBBF24" stroke="#FDE68A" stroke-width="0.4"/>
</svg>
