<svg width="32" height="32" viewBox="0 0 32 32" fill="none" xmlns="http://www.w3.org/2000/svg">
  <path
    d="M8.2 19.6C10.5 24.1 17 25.9 21.8 23.6c4.3-2.1 5.9-7.3 3.6-11.3-1.7-3-5.1-4.8-8.8-4.8h-3.8l2.4-4.1"
    stroke="#ffffff"
    stroke-width="2"
    stroke-linecap="round"
    stroke-linejoin="round"
  />
  <path d="M20.8 11.8h3.7" stroke="#ffffff" stroke-width="2" stroke-linecap="round" />
  <path
    d="M19.2 7.6 23 9.5"
    stroke="#ffffff"
    stroke-width="2"
    stroke-linecap="round"
    stroke-linejoin="round"
  />
  <path d="M18.6 13.5c.8 0 1.5.7 1.5 1.6 0 .9-.7 1.6-1.5 1.6-.8 0-1.5-.7-1.5-1.6 0-.9.7-1.6 1.5-1.6Z" fill="#ffffff" />
  <path
    d="M10.4 16.8c1.3 1.4 3.1 2.2 5.1 2.2 1.7 0 3.3-.6 4.6-1.5"
    stroke="#ffffff"
    stroke-width="2"
    stroke-linecap="round"
  />
</svg>
