<svg width="240" height="240" viewBox="0 0 240 240" xmlns="http://www.w3.org/2000/svg" role="img" aria-labelledby="title desc">
  <title id="title">KROSKIN emblem</title>
  <desc id="desc">Circular neon crest with a stylised K shaped like a flowing cape and plume.</desc>
  <defs>
    <linearGradient id="kroskin-gradient" x1="12%" y1="16%" x2="92%" y2="88%" gradientUnits="userSpaceOnUse">
      <stop offset="0%" stop-color="#8D4EFF" />
      <stop offset="55%" stop-color="#6C5CE7" />
      <stop offset="100%" stop-color="#3ACBDA" />
    </linearGradient>
    <linearGradient id="kroskin-shine" x1="0%" y1="0%" x2="100%" y2="100%">
      <stop offset="0%" stop-color="#B48CFF" stop-opacity="1" />
      <stop offset="100%" stop-color="#3ACBDA" stop-opacity="0.9" />
    </linearGradient>
    <filter id="glow" x="-50%" y="-50%" width="200%" height="200%">
      <feDropShadow dx="0" dy="0" stdDeviation="8" flood-color="#3ACBDA" flood-opacity="0.35" />
      <feDropShadow dx="0" dy="0" stdDeviation="14" flood-color="#8D4EFF" flood-opacity="0.22" />
    </filter>
  </defs>
  <rect width="240" height="240" rx="48" fill="#0E0E14" />
  <circle cx="120" cy="120" r="94" fill="none" stroke="url(#kroskin-gradient)" stroke-width="4" opacity="0.9" />
  <path
    d="M112 44c-10 22.5-14.5 49.5-14.5 77.5 0 7.4-.3 14.2-1.1 21.2-1.4 12.6-4.2 24-8.9 34.6l21.4 16.3c8.8-11.1 14.9-24.9 18.4-41.2 2.4-10.9 3.5-23.5 3.5-37.8 13.8 15.2 25.2 32.2 34.4 51l21.8-14.6c-10.2-18.2-24.5-34.8-43-50.2 10.6-9.9 19.3-21.4 26.4-34.4l-22.9-15.1c-5.5 11.5-13.2 21.2-23.2 29.5-2.4-14.6-5.9-27.7-10.3-39.3l-1.6-4.1z"
    fill="url(#kroskin-gradient)"
    filter="url(#glow)"
  />
  <path
    d="M93 188.5c17.3 7.2 36.2 6.4 51.3-3.4 9.1-6 14.6-14.6 15.9-24.7 1-7.6-.3-15.9-4.1-24.7-1.6 19.4-15.4 33.8-36 41.2-9.7 3.5-19.5 5-27.1 5.7z"
    fill="url(#kroskin-shine)"
    opacity="0.9"
  />
</svg>
